<svg width="100" height="100" viewBox="0 0 100 100" fill="none" xmlns="http://www.w3.org/2000/svg">
<rect width="100" height="100" rx="25" fill="#41228E"/>
<path fill-rule="evenodd" clip-rule="evenodd" d="M71.6147 48.1525C71.8061 47.3091 71.9064 46.43 71.9064 45.5291C71.9064 38.9568 66.5796 33.6286 60.0086 33.6286C55.2276 33.6286 51.1059 36.4475 49.213 40.5157L49.2143 40.517L49.1378 40.6833L49.1015 40.7665L49.0652 40.851C48.3609 42.499 48.0389 44.2704 48.1247 46.1732L48.1273 46.1884V46.197V46.2194L48.1293 46.2445L48.1306 46.2669L48.1326 46.2861C48.1497 46.5402 48.1709 46.7903 48.2032 47.0404C48.1365 46.5501 48.0323 46.0914 47.897 45.6551L47.8646 45.5548L47.8626 45.5449L47.8296 45.4545L47.8112 45.3964L47.796 45.3574L47.761 45.2604L47.7557 45.2466L47.7234 45.1647L47.6963 45.0994L47.6844 45.069C47.4528 44.512 47.1545 43.9866 46.802 43.5061L46.7703 43.4632L46.7433 43.4269L46.6819 43.3491L46.6746 43.3392L46.6199 43.2725L46.5783 43.2184L46.5572 43.196L46.4938 43.1194C46.0206 42.5683 45.4642 42.0832 44.8346 41.6548L44.8365 41.6509C43.6598 40.8853 42.2507 40.4385 40.7432 40.4385C37.4894 40.4385 34.7168 42.5043 33.6713 45.3984L33.6495 45.4597L33.6291 45.5191L33.6218 45.5416L33.608 45.5805C33.3611 46.3263 33.2265 47.1223 33.2265 47.9532C33.2265 48.3684 33.2608 48.7756 33.3261 49.1749L33.3143 49.1722L33.2826 49.1656L33.2555 49.1584H33.2502L33.2166 49.1485L33.1968 49.1412L33.1862 49.1399L33.1559 49.1313L33.1367 49.1287L33.1235 49.1274L32.9585 49.0897V49.0884L32.9262 49.0831C32.3579 48.9663 31.7732 48.9069 31.1699 48.9069C30.7924 48.9069 30.4189 48.9274 30.0539 48.9749L30.0519 48.9775L29.6427 49.0383L29.6176 49.0435C25.5124 49.7788 22.4005 53.3599 22.4005 57.673C22.4005 62.5161 26.3255 66.4425 31.1699 66.4425V66.4412H31.2438H40.1123H62.4618H70.7574H71.356L71.3501 66.4167C75.0962 66.1138 78.0398 62.9827 78.0398 59.158C78.0398 56.2897 76.3793 53.8074 73.9676 52.6214L73.9148 52.597L73.9122 52.5917L73.8521 52.566C72.9116 52.1277 71.8642 51.8789 70.7574 51.8789C70.5673 51.8789 70.3726 51.8868 70.1838 51.8994H70.1805L70.1614 51.902L70.1396 51.9033L70.1172 51.906L70.0954 51.9073L70.073 51.9086L70.0538 51.9126L70.0888 51.8571L70.1093 51.8261L70.1231 51.8017C70.5495 51.112 70.9092 50.3781 71.191 49.6026L71.2062 49.5649L71.2266 49.5055L71.2616 49.4052L71.2676 49.3861C71.4009 48.9828 71.5151 48.569 71.6147 48.1525Z" fill="white"/>
<path d="M70.7574 71.6222L70.1429 71.6057L31.2049 71.6222C23.4783 71.6222 17.2208 65.364 17.2208 57.6731C17.2208 50.8632 22.089 45.1225 28.6949 43.9444C30.403 38.7832 35.2263 35.2562 40.7445 35.2562C42.4401 35.2562 44.1185 35.5967 45.6681 36.2488C48.8038 31.4057 54.1815 28.4489 60.0086 28.4489C69.4262 28.4489 77.0874 36.1109 77.0874 45.5291C77.0874 46.4564 77.0129 47.3823 76.865 48.2931C80.7603 50.4837 83.2208 54.6324 83.2208 59.1581C83.2208 65.7812 78.0431 71.2479 71.4326 71.6024L70.7574 71.6222ZM40.7445 38.1014C36.2097 38.1014 32.2787 41.1704 31.1851 45.5654L30.9455 46.529L29.9582 46.6359C24.3191 47.249 20.0667 51.9944 20.0667 57.6731C20.0667 63.7959 25.0471 68.7756 31.1699 68.7756L31.7468 68.7624L70.1812 68.7611L70.7574 68.7749L71.288 68.7617C76.3806 68.4858 80.3769 64.2678 80.3769 59.1567C80.3769 55.367 78.1408 51.9212 74.6824 50.3748L73.6112 49.8989L73.8752 48.7578C74.1181 47.7064 74.2415 46.6194 74.2415 45.5297C74.2415 37.681 67.856 31.2948 60.0086 31.2948C54.7702 31.2948 49.968 34.1619 47.4746 38.7766L46.7882 40.0464L45.5289 39.3429C44.0769 38.5304 42.4223 38.1014 40.7445 38.1014Z" fill="white"/>
</svg>
